<svg width="1307.825146484375px" height="314.59999999999997px" xmlns="http://www.w3.org/2000/svg" viewBox="-403.9125732421875 -82.29999999999998 1307.825146484375 314.59999999999997" style="background: rgba(0, 0, 0, 0);" preserveAspectRatio="xMidYMid"><defs><filter id="editing-offset"><feFlood flood-color="#f00" flood-opacity="0.5" result="c1"></feFlood><feFlood flood-color="#0f0" flood-opacity="0.5" result="c2"></feFlood><feFlood flood-color="#00f" flood-opacity="0.5" result="c3"></feFlood><feComposite operator="in" in="c1" in2="SourceAlpha" result="text-c1"></feComposite><feComposite operator="in" in="c2" in2="SourceAlpha" result="text-c2"></feComposite><feComposite operator="in" in="c3" in2="SourceAlpha" result="text-c3"></feComposite><feOffset in="text-c1" dx="-10" dy="0" result="text1"></feOffset><feOffset in="text-c2" dx="10" dy="0" result="text2"></feOffset><feOffset in="text-c3" dx="0" dy="0" result="text3"></feOffset><feMerge><feMergeNode in="text1"></feMergeNode><feMergeNode in="text2"></feMergeNode><feMergeNode in="text3"></feMergeNode></feMerge></filter></defs><g filter="url(#editing-offset)"><g transform="translate(-216.39298820495605, 143.91500854492188)"><path d="M84.82 3.72L84.82 3.72L84.82 3.72Q61.01 3.72 58.78-30.13L58.78-30.13L26.78-30.13L26.78-30.13Q23.06-21.58 20.46-14.14L20.46-14.14L15.62 0L-10.42 0L48.17-122.76L88.16-122.76L95.98-32.36L95.98-32.36Q97.84-12.83 105.28-7.07L105.28-7.07L105.28-7.07Q99.88 3.72 84.82 3.72ZM42.78-67.33L32.55-43.71L58.22-43.71L55.99-91.51L55.99-96.53L42.78-67.33ZM160.52-10.23L160.52-10.23L160.52-10.23Q154.75 3.72 136.34 3.72L136.34 3.72L136.34 3.72Q127.04 3.72 121.09-2.79L121.09-2.79L121.09-2.79Q116.25-8.18 116.25-14.32L116.25-14.32L116.25-14.32Q116.25-28.27 122.76-58.78L122.76-58.78L136.34-130.20L174.10-133.92L156.05-39.80L156.05-39.80Q152.89-26.04 152.89-21.20L152.89-21.20L152.89-21.20Q152.89-10.60 160.52-10.23ZM220.78-10.23L220.78-10.23L220.78-10.23Q215.02 3.72 196.60 3.72L196.60 3.72L196.60 3.72Q187.30 3.72 181.35-2.79L181.35-2.79L181.35-2.79Q176.51-8.18 176.51-14.32L176.51-14.32L176.51-14.32Q176.51-28.27 183.02-58.78L183.02-58.78L196.60-130.20L234.36-133.92L216.32-39.80L216.32-39.80Q213.16-26.04 213.16-21.20L213.16-21.20L213.16-21.20Q213.16-10.60 220.78-10.23ZM277.70-45.38L277.70-45.38L277.70-45.38Q277.70-80.54 295.93-102.67L295.93-102.67L295.93-102.67Q315.27-126.67 348.94-126.67L348.94-126.67L348.94-126.67Q373.30-126.67 385.58-114.86L385.58-114.86L385.58-114.86Q397.85-103.04 397.85-78.12L397.85-78.12L397.85-78.12Q397.85-40.18 378.51-18.04L378.51-18.04L378.51-18.04Q359.35 3.72 327.17 3.72L327.17 3.72L327.17 3.72Q302.06 3.72 289.88-8.83L289.88-8.83L289.88-8.83Q277.70-21.39 277.70-45.38ZM326.62-83.89L326.62-83.89L326.62-83.89Q318.25-50.41 318.25-23.99L318.25-23.99L318.25-23.99Q318.25-17.67 320.38-13.58L320.38-13.58L320.38-13.58Q322.52-9.49 328.20-9.49L328.20-9.49L328.20-9.49Q333.87-9.49 337.40-12.18L337.40-12.18L337.40-12.18Q340.94-14.88 343.73-21.02L343.73-21.02L343.73-21.02Q348.19-31.06 352.38-52.36L352.38-52.36L352.38-52.36Q356.56-73.66 356.93-82.49L356.93-82.49L356.93-82.49Q357.31-91.33 357.31-98.02L357.31-98.02L357.31-98.02Q357.31-104.72 355.26-109.00L355.26-109.00L355.26-109.00Q353.21-113.27 347.73-113.27L347.73-113.27L347.73-113.27Q342.24-113.27 338.52-109.93L338.52-109.93L338.52-109.93Q331.64-103.60 326.62-83.89ZM466.67-7.81L466.67-7.81L466.67-7.81Q457.75 3.72 435.61 3.72L435.61 3.72L435.61 3.72Q424.08 3.72 415.71-3.25L415.71-3.25L415.71-3.25Q407.34-10.23 407.34-20.27L407.34-20.27L407.34-20.27Q407.34-25.85 407.90-28.64L407.90-28.64L420.36-94.86L458.12-98.58L444.54-26.78L444.54-26.78Q443.80-22.69 443.80-20.27L443.80-20.27L443.80-20.27Q443.80-9.49 450.31-9.49L450.31-9.49L450.31-9.49Q457.56-9.49 462.77-19.34L462.77-19.34L462.77-19.34Q464.44-22.51 465.19-26.60L465.19-26.60L478.39-94.86L515.03-98.58L501.27-26.04L501.27-26.04Q500.71-23.25 500.71-20.27L500.71-20.27L500.71-20.27Q500.71-17.30 502.39-14.04L502.39-14.04L502.39-14.04Q504.06-10.79 509.45-10.04L509.45-10.04L509.45-10.04Q508.34-5.58 504.43-2.60L504.43-2.60L504.43-2.60Q496.25 3.72 487.41 3.72L487.41 3.72L487.41 3.72Q478.58 3.72 473.37 0.56L473.37 0.56L473.37 0.56Q468.16-2.60 466.67-7.81ZM528.05-18.60L528.05-18.60L528.05-18.60Q528.05-23.62 530.66-36.27L530.66-36.27L540.52-86.49L529.54-86.49L530.29-92.07L530.29-92.07Q552.61-98.77 574.18-115.13L574.18-115.13L583.11-115.13L578.65-94.86L593.15-94.86L591.48-86.49L577.16-86.49L567.67-36.27L567.67-36.27Q565.25-24.74 565.25-20.83L565.25-20.83L565.25-20.83Q565.25-11.90 573.07-10.04L573.07-10.04L573.07-10.04Q571.21-3.72 564.51 0L564.51 0L564.51 0Q557.81 3.72 548.33 3.72L548.33 3.72L548.33 3.72Q538.84 3.72 533.45-2.23L533.45-2.23L533.45-2.23Q528.05-8.18 528.05-18.60ZM638.54-27.53L638.54-27.53L638.54-27.53Q644.12-20.27 657.32-20.27L657.32-20.27L657.32-20.27Q674.62-20.27 684.29-32.36L684.29-32.36L684.29-32.36Q690.80-40.73 693.78-55.80L693.78-55.80L693.78-55.80Q688.94-47.80 682.53-43.62L682.53-43.62L682.53-43.62Q676.11-39.43 667.18-39.43L667.18-39.43L667.18-39.43Q658.25-39.43 652.58-42.59L652.58-42.59L652.58-42.59Q646.91-45.76 643.37-50.96L643.37-50.96L643.37-50.96Q636.68-60.64 636.68-74.40L636.68-74.40L636.68-74.40Q636.68-88.16 641.51-97.84L641.51-97.84L641.51-97.84Q646.35-107.51 654.16-114.02L654.16-114.02L654.16-114.02Q669.41-127.04 689.69-127.04L689.69-127.04L689.69-127.04Q707.36-127.04 718.15-115.51L718.15-115.51L718.15-115.51Q729.31-103.23 729.31-81.28L729.31-81.28L729.31-81.28Q729.31-66.59 724.28-51.52L724.28-51.52L724.28-51.52Q719.26-36.46 710.15-24.18L710.15-24.18L710.15-24.18Q701.03-11.90 688.57-4.09L688.57-4.09L688.57-4.09Q676.11 3.72 661.97 3.72L661.97 3.72L661.97 3.72Q647.84 3.72 639.84-0.74L639.84-0.74L639.84-0.74Q631.84-5.21 631.84-13.39L631.84-13.39L631.84-13.39Q631.84-22.32 638.54-27.53ZM672.39-94.12L672.39-94.12L672.39-94.12Q670.72-89.09 670.06-83.98L670.06-83.98L670.06-83.98Q669.41-78.86 669.41-73.84L669.41-73.84L669.41-73.84Q669.41-68.82 672.30-64.17L672.30-64.17L672.30-64.17Q675.18-59.52 679.09-59.52L679.09-59.52L679.09-59.52Q682.99-59.52 686.06-61.75L686.06-61.75L686.06-61.75Q689.13-63.98 691.73-67.89L691.73-67.89L691.73-67.89Q697.13-76.45 697.13-86.68L697.13-86.68L697.13-86.68Q697.13-96.91 693.87-101.65L693.87-101.65L693.87-101.65Q690.62-106.39 685.41-106.39L685.41-106.39L685.41-106.39Q680.20-106.39 677.13-102.77L677.13-102.77L677.13-102.77Q674.06-99.14 672.39-94.12ZM739.91-44.27L739.91-44.27L739.91-44.27Q739.91-81.84 757.58-104.16L757.58-104.16L757.58-104.16Q775.25-126.48 805.57-126.48L805.57-126.48L805.57-126.48Q821.75-126.48 831.05-114.39L831.05-114.39L831.05-114.39Q840.35-102.30 840.35-82.12L840.35-82.12L840.35-82.12Q840.35-61.94 835.79-46.22L835.79-46.22L835.79-46.22Q831.23-30.50 823.05-19.34L823.05-19.34L823.05-19.34Q805.94 3.91 777.48 3.91L777.48 3.91L777.48 3.91Q758.32 3.91 749.12-7.91L749.12-7.91L749.12-7.91Q739.91-19.72 739.91-44.27ZM772.83-31.62L772.83-31.62L772.83-31.62Q772.83-12.83 778.97-12.83L778.97-12.83L778.97-12.83Q784.55-12.83 789.66-19.34L789.66-19.34L789.66-19.34Q794.78-25.85 798.87-36.83L798.87-36.83L798.87-36.83Q807.61-60.82 807.61-90.58L807.61-90.58L807.61-90.58Q807.61-100.63 806.03-105.18L806.03-105.18L806.03-105.18Q804.45-109.74 800.26-109.74L800.26-109.74L800.26-109.74Q796.08-109.74 791.15-102.49L791.15-102.49L791.15-102.49Q786.22-95.23 782.13-83.89L782.13-83.89L782.13-83.89Q772.83-58.03 772.83-31.62ZM904.89-65.29L904.89-65.29L904.89-65.29Q907.49-72.17 907.49-78.12L907.49-78.12L907.49-78.12Q907.49-89.09 898.57-89.09L898.57-89.09L898.57-89.09Q893.92-89.09 890.10-84.91L890.10-84.91L890.10-84.91Q886.29-80.72 886.29-75.52L886.29-75.52L886.29-75.52Q886.29-71.80 889.27-68.82L889.27-68.82L889.27-68.82Q893.54-64.73 904.52-58.03L904.52-58.03L904.52-58.03Q915.49-51.34 919.68-45.85L919.68-45.85L919.68-45.85Q923.86-40.36 923.86-32.83L923.86-32.83L923.86-32.83Q923.86-25.30 920.24-18.41L920.24-18.41L920.24-18.41Q916.61-11.53 910.10-6.70L910.10-6.70L910.10-6.70Q896.15 3.72 873.83 3.72L873.83 3.72L873.83 3.72Q861.74 3.72 852.44-2.60L852.44-2.60L852.44-2.60Q843.14-8.74 843.14-16.00L843.14-16.00L843.14-16.00Q843.14-23.25 848.44-27.53L848.44-27.53L848.44-27.53Q853.74-31.81 861.55-31.81L861.55-31.81L861.55-31.81Q869.36-31.81 874.20-28.83L874.20-28.83L874.20-28.83Q871.78-22.69 871.78-18.60L871.78-18.60L871.78-18.60Q871.78-6.32 882.20-6.32L882.20-6.32L882.20-6.32Q886.66-6.32 889.64-9.11L889.64-9.11L889.64-9.11Q892.61-11.90 892.61-16.74L892.61-16.74L892.61-16.74Q892.61-26.23 876.62-36.27L876.62-36.27L876.62-36.27Q863.60-44.83 860.62-48.17L860.62-48.17L860.62-48.17Q855.60-54.13 855.60-61.57L855.60-61.57L855.60-61.57Q855.60-69.01 859.13-76.07L859.13-76.07L859.13-76.07Q862.67-83.14 869.18-88.16L869.18-88.16L869.18-88.16Q882.76-98.58 906.38-98.58L906.38-98.58L906.38-98.58Q918.47-98.58 925.63-93.74L925.63-93.74L925.63-93.74Q932.79-88.91 932.79-80.72L932.79-80.72L932.79-80.72Q932.79-72.54 927.86-67.89L927.86-67.89L927.86-67.89Q922.93-63.24 914.00-63.24L914.00-63.24L914.00-63.24Q907.87-63.24 904.89-65.29Z"></path></g></g><style>text {
  font-size: 64px;
  font-family: Arial Black;
  dominant-baseline: central;
  text-anchor: middle;
}</style></svg>